<?xml version="1.0" encoding="UTF-8"?>
<svg id="katman_1" xmlns="http://www.w3.org/2000/svg" viewBox="0 0 612 792">
  <defs>
    <style>
      .cls-1 {
        fill: #1d1d1b;
      }
    </style>
  </defs>
  <path d="M397.7,295.07c.24-.33.49-.67.72-1,13.49-18.16,21.49-40.75,21.49-65.24V92.88h-214.28v135.95c0,25.68,8.8,49.27,23.51,67.86.02.04.05.08.08.11,6.87,9.07,21.28,24.59,48.61,35.01-.14.04-.29.08-.41.14-42.1,14.85-71.52,55.45-71.53,100.87,0,49.65,35.17,93.54,83.62,104.39.47.08.92.21,1.37.28v6.92l21.94,66.7,21.94-66.7v-6.9c.5-.12.99-.23,1.47-.34,41.52-10.14,83.53-49.23,83.53-104.35,0-49.94-34.52-86.74-71.89-100.76.12-.03.24-.07.37-.11-.15-.04-.28-.09-.43-.14,13.38-5.16,34.33-15.59,49.89-36.74ZM290.88,524.76c-42.15-10.08-72.57-48.53-72.57-91.94s30.42-81.86,72.57-91.94v183.88ZM290.88,236.27c-3.35.49-7.14.77-11.6.77-15.46,0-23.04-3.42-31.04-7.02-7.69-3.46-15.62-7.03-29.48-7.88.16-1.78.38-3.53.64-5.27,5.76-37.38,33.97-68.79,71.48-77.75v97.15ZM407.33,432.82c.02,48.06-36.26,82.38-72.57,91.93v-183.82c36.31,9.53,72.57,43.82,72.57,91.89ZM346.35,221.94c-4.34,0-8.15.24-11.59.66v-83.45c32.63,8.57,65.23,37.16,71.49,77.73.7,4.57,1.08,9.29,1.08,14.16,0,1.94-.06,3.9-.19,5.8-11.39-.79-17.9-3.73-24.74-6.81-8.84-3.97-17.95-8.09-36.05-8.09Z"/>
  <g>
    <path class="cls-1" d="M233.18,629.01v48.24h-5.9v-48.24h-10.66v-5.98h27.22v5.98h-10.66Z"/>
    <path class="cls-1" d="M253.84,664.44v6.77h20.38v5.9h-26.35v-12.67h-3.46v-5.98h3.46v-35.5h26.71v5.9h-20.74v29.59h20.74v5.98h-20.74Z"/>
    <path class="cls-1" d="M285.3,671.28h19.01v5.98h-28.44l23.4-48.24h-18.58v-5.98h28.01l-23.4,48.24Z"/>
    <path class="cls-1" d="M322.78,675.6c-2.52,1.11-5.2,1.66-8.03,1.66h-4.46v-54.22h4.46c2.69,0,4.91.96,6.66,2.88,1.75,1.92,2.63,4.08,2.63,6.48,0,.82-.11,1.63-.32,2.45-.22.82-.59,1.63-1.12,2.45,4.13,1.68,7.31,4.32,9.54,7.92,2.23,3.6,3.35,7.42,3.35,11.45,0,.29-.01.58-.04.86-.02.29-.04.58-.04.86-.24,2.26-.84,4.49-1.8,6.7-.96,2.21-2.38,4.22-4.25,6.05-1.87,1.87-4.07,3.36-6.59,4.46ZM317.7,634.09c.29-.55.43-1.14.43-1.76s-.16-1.2-.47-1.73c-.31-.53-.78-.96-1.4-1.3v6.12c.67-.33,1.15-.78,1.44-1.33ZM325.73,646.58c-2.57-2.83-5.72-4.44-9.47-4.82v29.45c3.74-.38,6.9-1.98,9.47-4.79,2.57-2.81,3.85-6.11,3.85-9.9s-1.28-7.1-3.85-9.94Z"/>
    <path class="cls-1" d="M337.79,677.25v-54.22h5.9v54.22h-5.9Z"/>
    <path class="cls-1" d="M362.77,629.01v48.24h-5.9v-48.24h-10.66v-5.98h27.22v5.98h-10.66Z"/>
    <path class="cls-1" d="M391.43,629.01v48.24h-5.9v-48.24h-10.66v-5.98h27.22v5.98h-10.66Z"/>
    <path class="cls-1" d="M403.24,677.25v-54.22h5.9v54.22h-5.9Z"/>
  </g>
</svg>